<svg width="393" height="54" viewBox="0 0 393 54" fill="none" xmlns="http://www.w3.org/2000/svg">
<rect y="15" width="393" height="2" fill="#EEEEEE"/>
<path d="M0 15H260C260.552 15 261 15.4477 261 16C261 16.5523 260.552 17 260 17H0V15Z" fill="#4A7DFF"/>
<path d="M42.1016 42.2461C43.7656 42.2344 44.9492 43.2656 44.9609 44.7422C44.9492 46.2188 43.7656 47.25 42.1016 47.25C40.4492 47.25 39.2305 46.2188 39.2422 44.7422C39.2305 43.2656 40.4492 42.2344 42.1016 42.2461ZM42.1016 43.207C41.082 43.207 40.332 43.8164 40.3438 44.7422C40.332 45.668 41.082 46.2773 42.1016 46.2773C43.1211 46.2773 43.8711 45.668 43.8711 44.7422C43.8711 43.8164 43.1211 43.207 42.1016 43.207ZM47.3633 41.4961V52.0195H46.25V41.4961H47.3633ZM38.7383 48.832C40.6484 48.832 43.2969 48.8086 45.5938 48.4805L45.6758 49.2891C43.2969 49.7461 40.7539 49.7578 38.8789 49.7578L38.7383 48.832ZM58.1602 49.8047V50.7422H48.5508V49.8047H51.1758V47.9531H49.7227V44.6133H55.8867V43.1484H49.6992V42.2344H56.9883V45.5156H50.8242V47.0391H57.2344V47.9531H55.6406V49.8047H58.1602ZM52.2539 49.8047H54.5508V47.9531H52.2539V49.8047ZM64.707 44.168C64.6953 46.0898 65.8555 48.0117 67.4844 48.7383L66.8164 49.6172C65.6094 49.043 64.6543 47.8652 64.168 46.4297C63.6758 47.9648 62.709 49.2363 61.4492 49.8516L60.7695 48.9141C62.4219 48.1758 63.582 46.1719 63.582 44.168V42.375H64.707V44.168ZM69.5469 41.4961V52.0195H68.4336V41.4961H69.5469ZM79.4766 41.4961V46.8984H78.3633V44.2031H76.1484V43.3008H78.3633V41.4961H79.4766ZM79.4766 47.3906V50.0039H73.7227V50.9766H79.8398V51.8672H72.6328V49.1602H78.375V48.2695H72.6094V47.3906H79.4766ZM74.4141 42.75C74.4141 44.0859 75.375 45.3281 76.957 45.832L76.3711 46.6992C75.2168 46.3008 74.3438 45.5098 73.8867 44.5078C73.4238 45.6328 72.5215 46.5176 71.2852 46.9453L70.6875 46.0547C72.3281 45.5273 73.3008 44.2266 73.3125 42.75V41.8359H74.4141V42.75Z" fill="black"/>
<path d="M171.141 42.9844C171.141 44.6953 172.969 46.3125 174.984 46.6758L174.469 47.6016C172.793 47.2383 171.246 46.1367 170.566 44.6602C169.875 46.125 168.334 47.2266 166.652 47.6016L166.16 46.6758C168.152 46.3008 169.969 44.6953 169.969 42.9844V42.1875H171.141V42.9844ZM175.418 49.6875V50.6133H165.809V49.6875H175.418ZM184.129 42.5156V43.793C184.129 45.3281 184.129 46.7695 183.672 48.9492L182.57 48.8438C182.793 47.8828 182.91 47.0391 182.969 46.2539L176.664 46.5938L176.523 45.6797L183.027 45.4336C183.045 44.8711 183.045 44.332 183.051 43.793V43.4297H176.816V42.5156H184.129ZM185.254 49.6758V50.5898H175.68V49.6758H185.254ZM194.258 41.5078V47.2969H193.145V41.5078H194.258ZM190.906 42V44.9297H187.191V46.1719C189.025 46.1602 190.379 46.1133 191.973 45.8555L192.113 46.7578C190.402 47.0391 188.961 47.0859 186.98 47.0977H186.102V44.0625H189.805V42.9023H186.078V42H190.906ZM188.48 47.7891V48.9258H193.156V47.7891H194.258V51.8672H187.367V47.7891H188.48ZM188.48 50.9648H193.156V49.8047H188.48V50.9648ZM203.941 47.0859V47.9766H196.629V42.3633H203.836V43.2656H197.754V44.6836H203.613V45.5625H197.754V47.0859H203.941ZM205.031 49.7578V50.6719H195.422V49.7578H205.031ZM211.391 43.3828C211.391 44.7188 212.316 45.9961 213.922 46.5352L213.359 47.4023C212.17 46.9922 211.297 46.1719 210.84 45.1406C210.383 46.2773 209.475 47.168 208.238 47.6016L207.641 46.7344C209.281 46.1719 210.266 44.8242 210.277 43.3711V43.0898H207.969V42.1875H213.652V43.0898H211.391V43.3828ZM215.973 41.4961V44.1914H217.496V45.1289H215.973V47.8242H214.859V41.4961H215.973ZM215.973 48.3398V51.9961H214.859V49.2422H209.035V48.3398H215.973ZM221.32 43.0664C221.32 44.543 222.27 45.8555 223.863 46.3711L223.254 47.2383C222.1 46.8223 221.25 46.0137 220.793 44.9648C220.336 46.166 219.422 47.0977 218.156 47.5547L217.559 46.6641C219.234 46.0898 220.207 44.6953 220.219 43.1133V42.082H221.32V43.0664ZM226.348 41.4961V47.6953H225.234V44.543H223.02V43.6289H225.234V41.4961H226.348ZM222.832 47.9883C225.035 47.9883 226.383 48.7148 226.383 49.9922C226.383 51.2578 225.035 51.9844 222.832 51.9727C220.629 51.9844 219.27 51.2578 219.281 49.9922C219.27 48.7148 220.629 47.9883 222.832 47.9883ZM222.832 48.8555C221.297 48.8555 220.383 49.2656 220.383 49.9922C220.383 50.6953 221.297 51.0938 222.832 51.0938C224.367 51.0938 225.281 50.6953 225.281 49.9922C225.281 49.2656 224.367 48.8555 222.832 48.8555Z" fill="black"/>
<path d="M322.289 49.7695V50.6953H312.68V49.7695H316.91V47.6133H313.781V42.2109H314.895V44.0156H320.051V42.2109H321.152V47.6133H318.012V49.7695H322.289ZM314.895 46.7109H320.051V44.918H314.895V46.7109ZM331.305 41.4961V47.8594H330.191V45.5742H328.551V44.6484H330.191V41.4961H331.305ZM331.305 48.375V51.8672H324.379V48.375H331.305ZM325.48 49.2539V50.9648H330.215V49.2539H325.48ZM328.715 42.5391V43.4297H322.562V42.5391H325.094V41.4023H326.195V42.5391H328.715ZM325.645 43.9102C327.086 43.9102 328.105 44.6836 328.105 45.7852C328.105 46.9219 327.086 47.6602 325.645 47.6719C324.203 47.6602 323.172 46.9219 323.172 45.7852C323.172 44.6836 324.203 43.9102 325.645 43.9102ZM325.645 44.7656C324.801 44.7539 324.238 45.1641 324.238 45.7852C324.238 46.4297 324.801 46.8281 325.645 46.8281C326.477 46.8281 327.039 46.4297 327.039 45.7852C327.039 45.1641 326.477 44.7539 325.645 44.7656ZM338.531 43.7344C338.531 44.9648 339.551 46.125 341.145 46.5703L340.617 47.4375C339.404 47.0918 338.484 46.3418 338.004 45.375C337.547 46.459 336.633 47.3145 335.379 47.707L334.852 46.8516C336.445 46.3359 337.43 45.082 337.43 43.7344V43.6055H335.145V42.7148H337.43V41.4492H338.543V42.7148H340.816V43.6055H338.531V43.7344ZM343.605 41.4961V47.8594H342.492V45.3516H340.488V44.4375H342.492V41.4961H343.605ZM340.09 48.0938C342.281 48.0938 343.641 48.7969 343.641 50.0273C343.641 51.2695 342.281 51.9844 340.09 51.9727C337.887 51.9844 336.527 51.2695 336.539 50.0273C336.527 48.7969 337.887 48.0938 340.09 48.0938ZM340.09 48.9609C338.555 48.9609 337.641 49.3477 337.641 50.0273C337.641 50.707 338.555 51.1172 340.09 51.1172C341.637 51.1172 342.539 50.707 342.539 50.0273C342.539 49.3477 341.637 48.9609 340.09 48.9609ZM353.078 42.1523V43.0781C353.078 44.0742 353.078 45.1523 352.785 46.6523H354.297V47.5664H350.043V52.0078H348.918V47.5664H344.723V46.6523H351.66C351.977 45.1582 351.977 44.0566 351.977 43.0781V43.0664H345.895V42.1523H353.078Z" fill="black"/>
<circle cx="59" cy="16" r="16" fill="#4A7DFF"/>
<path d="M51.5 23.5H66.5" stroke="white" stroke-width="1.125" stroke-miterlimit="10" stroke-linecap="round" stroke-linejoin="round"/>
<path d="M62.75 8.5H55.25C53 8.5 52.25 9.8425 52.25 11.5V23.5H65.75V11.5C65.75 9.8425 65 8.5 62.75 8.5Z" stroke="white" stroke-width="1.125" stroke-miterlimit="10" stroke-linecap="round" stroke-linejoin="round"/>
<path d="M60.5449 18.25H57.4474C57.0649 18.25 56.7424 18.565 56.7424 18.955V23.5H61.2424V18.955C61.2499 18.565 60.9349 18.25 60.5449 18.25Z" stroke="white" stroke-width="1.125" stroke-miterlimit="10" stroke-linecap="round" stroke-linejoin="round"/>
<path d="M59 11.5V15.25" stroke="white" stroke-width="1.125" stroke-miterlimit="10" stroke-linecap="round" stroke-linejoin="round"/>
<path d="M57.125 13.375H60.875" stroke="white" stroke-width="1.125" stroke-miterlimit="10" stroke-linecap="round" stroke-linejoin="round"/>
<circle cx="196" cy="16" r="16" fill="#4A7DFF"/>
<path d="M188.771 20.25V11.5416C188.771 8.37498 189.562 7.58331 192.729 7.58331H198.271C201.437 7.58331 202.229 8.37498 202.229 11.5416V19.4583C202.229 19.5691 202.229 19.68 202.221 19.7908" stroke="white" stroke-width="1.1875" stroke-linecap="round" stroke-linejoin="round"/>
<path d="M191.027 17.875H202.229V20.6458C202.229 22.1738 200.986 23.4167 199.458 23.4167H191.542C190.014 23.4167 188.771 22.1738 188.771 20.6458V20.1313C188.771 18.8883 189.784 17.875 191.027 17.875Z" stroke="white" stroke-width="1.1875" stroke-linecap="round" stroke-linejoin="round"/>
<path d="M192.333 11.5417H198.667" stroke="white" stroke-width="1.1875" stroke-linecap="round" stroke-linejoin="round"/>
<path d="M192.333 14.3125H196.292" stroke="white" stroke-width="1.1875" stroke-linecap="round" stroke-linejoin="round"/>
<circle cx="333" cy="16" r="16" fill="#EEEEEE"/>
<path d="M341.917 11.75V13.6658C341.917 14.9166 341.125 15.7083 339.874 15.7083H337.167V10.1746C337.167 9.29581 337.887 8.58331 338.766 8.58331C339.629 8.59123 340.421 8.93956 340.991 9.50956C341.561 10.0875 341.917 10.8791 341.917 11.75Z" stroke="white" stroke-width="1.1875" stroke-miterlimit="10" stroke-linecap="round" stroke-linejoin="round"/>
<path d="M326.083 12.5416V23.625C326.083 24.2821 326.827 24.6541 327.35 24.2583L328.704 23.245C329.02 23.0075 329.464 23.0391 329.749 23.3241L331.063 24.6462C331.372 24.955 331.878 24.955 332.187 24.6462L333.517 23.3162C333.794 23.0391 334.237 23.0075 334.546 23.245L335.9 24.2583C336.422 24.6462 337.167 24.2741 337.167 23.625V10.1666C337.167 9.29581 337.879 8.58331 338.75 8.58331H330.042H329.25C326.875 8.58331 326.083 10.0004 326.083 11.75V12.5416Z" stroke="white" stroke-width="1.1875" stroke-miterlimit="10" stroke-linecap="round" stroke-linejoin="round"/>
<path d="M329.25 14.125H334" stroke="white" stroke-width="1.1875" stroke-linecap="round" stroke-linejoin="round"/>
<path d="M329.844 17.2917H333.406" stroke="white" stroke-width="1.1875" stroke-linecap="round" stroke-linejoin="round"/>
</svg>
