<svg width="29" height="29" viewBox="0 0 29 29" fill="none" xmlns="http://www.w3.org/2000/svg">
<g id="arrow-left">
<path id="Vector" d="M11.5635 22.7418C11.3339 22.7418 11.1043 22.6572 10.9231 22.476L3.5885 15.1414C3.23808 14.791 3.23808 14.211 3.5885 13.8606L10.9231 6.526C11.2735 6.17558 11.8535 6.17558 12.2039 6.526C12.5543 6.87641 12.5543 7.45641 12.2039 7.80683L5.50975 14.501L12.2039 21.1952C12.5543 21.5456 12.5543 22.1256 12.2039 22.476C12.0347 22.6572 11.7931 22.7418 11.5635 22.7418Z" fill="#8E8E8E"/>
<path id="Vector_2" d="M24.7708 15.4062H4.43457C3.93915 15.4062 3.52832 14.9954 3.52832 14.5C3.52832 14.0046 3.93915 13.5938 4.43457 13.5938H24.7708C25.2662 13.5938 25.6771 14.0046 25.6771 14.5C25.6771 14.9954 25.2662 15.4062 24.7708 15.4062Z" fill="#8E8E8E"/>
</g>
</svg>
