<svg width="20" height="21" viewBox="0 0 20 21" fill="none" xmlns="http://www.w3.org/2000/svg">
<path d="M4.61666 16.7992C4.10832 16.7992 3.63332 16.6198 3.29166 16.2864C2.85832 15.8676 2.64999 15.2351 2.72499 14.5514L3.03332 11.7821C3.09166 11.2608 3.39999 10.5685 3.75832 10.1924L10.6 2.76505C12.3083 0.910352 14.0917 0.859071 15.9 2.61121C17.7083 4.36334 17.7583 6.1924 16.05 8.0471L9.20832 15.4745C8.85832 15.8591 8.20832 16.218 7.69999 16.3035L5.01666 16.7736C4.87499 16.7821 4.74999 16.7992 4.61666 16.7992ZM13.275 2.60266C12.6333 2.60266 12.075 3.01292 11.5083 3.6283L4.66666 11.0642C4.49999 11.2437 4.30832 11.671 4.27499 11.9189L3.96666 14.6881C3.93332 14.9702 3.99999 15.201 4.14999 15.3463C4.29999 15.4915 4.52499 15.5428 4.79999 15.5001L7.48332 15.03C7.72499 14.9873 8.12499 14.7651 8.29166 14.5856L15.1333 7.15822C16.1667 6.03001 16.5417 4.98728 15.0333 3.53428C14.3667 2.87616 13.7917 2.60266 13.275 2.60266Z" fill="#4A7DFF"/>
<path d="M14.4497 9.47412C14.433 9.47412 14.408 9.47412 14.3914 9.47412C11.7914 9.20916 9.69971 7.18352 9.29971 4.53395C9.24971 4.18352 9.48305 3.85874 9.82471 3.79891C10.1664 3.74763 10.483 3.98694 10.5414 4.33737C10.858 6.40575 12.4914 7.99549 14.5247 8.20062C14.8664 8.23481 15.1164 8.55104 15.083 8.90147C15.0414 9.22626 14.7664 9.47412 14.4497 9.47412Z" fill="#0042ED"/>
<path d="M17.5 19.5599H2.5C2.15833 19.5599 1.875 19.2693 1.875 18.9189C1.875 18.5684 2.15833 18.2778 2.5 18.2778H17.5C17.8417 18.2778 18.125 18.5684 18.125 18.9189C18.125 19.2693 17.8417 19.5599 17.5 19.5599Z" fill="#0042ED"/>
</svg>
