<svg width="353" height="112" viewBox="0 0 353 112" fill="none" xmlns="http://www.w3.org/2000/svg">
<mask id="mask0_521_28175" style="mask-type:alpha" maskUnits="userSpaceOnUse" x="0" y="0" width="353" height="112">
<rect width="353" height="112" rx="25" fill="url(#paint0_linear_521_28175)"/>
</mask>
<g mask="url(#mask0_521_28175)">
<rect width="353" height="112" rx="25" fill="url(#paint1_linear_521_28175)"/>
<rect width="353" height="112" rx="25" fill="url(#paint2_linear_521_28175)"/>
<g filter="url(#filter0_d_521_28175)">
<path fill-rule="evenodd" clip-rule="evenodd" d="M297.297 52.6078C297.297 52.6077 297.297 52.6077 297.297 52.6076C246.994 35.1512 192.064 61.7789 174.607 112.082C157.151 162.386 183.778 217.316 234.082 234.772C234.082 234.772 234.082 234.772 234.082 234.772L246 200.43C246 200.43 245.999 200.43 245.999 200.43C214.663 189.555 198.075 155.336 208.95 124C219.824 92.6634 254.043 76.0757 285.379 86.9502C285.379 86.9502 285.38 86.9503 285.38 86.9503L297.297 52.6078Z" fill="url(#paint3_linear_521_28175)" fill-opacity="0.2" shape-rendering="crispEdges"/>
</g>
<g filter="url(#filter1_d_521_28175)">
<path fill-rule="evenodd" clip-rule="evenodd" d="M334.297 52.6078C334.297 52.6077 334.297 52.6077 334.297 52.6076C283.994 35.1512 229.064 61.7789 211.607 112.082C194.151 162.386 220.778 217.316 271.082 234.772C271.082 234.772 271.082 234.772 271.082 234.772L283 200.43C283 200.43 282.999 200.43 282.999 200.43C251.663 189.555 235.075 155.336 245.95 124C256.824 92.6634 291.043 76.0757 322.379 86.9502C322.379 86.9502 322.38 86.9503 322.38 86.9503L334.297 52.6078Z" fill="url(#paint4_linear_521_28175)" fill-opacity="0.2" shape-rendering="crispEdges"/>
</g>
<g filter="url(#filter2_d_521_28175)">
<path fill-rule="evenodd" clip-rule="evenodd" d="M368.297 52.6078C368.297 52.6077 368.297 52.6077 368.297 52.6076C317.994 35.1512 263.064 61.7789 245.607 112.082C228.151 162.386 254.778 217.316 305.082 234.772C305.082 234.772 305.082 234.772 305.082 234.772L317 200.43C317 200.43 316.999 200.43 316.999 200.43C285.663 189.555 269.075 155.336 279.95 124C290.824 92.6634 325.043 76.0757 356.379 86.9502C356.379 86.9502 356.38 86.9503 356.38 86.9503L368.297 52.6078Z" fill="url(#paint5_linear_521_28175)" fill-opacity="0.2" shape-rendering="crispEdges"/>
</g>
<g filter="url(#filter3_d_521_28175)">
<path fill-rule="evenodd" clip-rule="evenodd" d="M397.297 57.6078C397.297 57.6077 397.297 57.6077 397.297 57.6076C346.994 40.1512 292.064 66.7789 274.607 117.082C257.151 167.386 283.778 222.316 334.082 239.772C334.082 239.772 334.082 239.772 334.082 239.772L346 205.43C346 205.43 345.999 205.43 345.999 205.43C314.663 194.555 298.075 160.336 308.95 129C319.824 97.6634 354.043 81.0757 385.379 91.9502C385.379 91.9502 385.38 91.9503 385.38 91.9503L397.297 57.6078Z" fill="url(#paint6_linear_521_28175)" fill-opacity="0.2" shape-rendering="crispEdges"/>
</g>
</g>
<g filter="url(#filter4_d_521_28175)">
<path d="M326.571 33.5964C324.027 34.4275 319.408 39.0644 317.416 41.2789L308.989 38.9199L310.065 37.8322L307.587 35.3812L305.136 37.8586L296.228 35.5022L294.972 36.7711L311.139 47.6237L303.017 57.4043L294.711 55.285L293.217 56.7957L300.213 61.3262L298.194 65.9051L302.808 63.2958L307.296 70.7248L308.79 69.2142L306.159 60.513L315.852 52.2866L327.24 68.6945L328.495 67.4256L326.044 58.5431L328.495 56.0656L326.017 53.6146L324.941 54.7022L323.089 45.5761C326.965 42.1413 329.322 38.4302 330.015 37.004C332.155 32.4245 328.61 32.8242 326.571 33.5964Z" fill="url(#paint7_linear_521_28175)"/>
</g>
<g filter="url(#filter5_d_521_28175)">
<path d="M326.571 35.0964C324.027 35.9275 319.408 40.5644 317.416 42.7789L308.989 40.4199L310.065 39.3322L307.587 36.8812L305.136 39.3586L296.228 37.0022L294.972 38.2711L311.139 49.1237L303.017 58.9043L294.711 56.785L293.217 58.2957L300.213 62.8262L298.194 67.4051L302.808 64.7958L307.296 72.2248L308.79 70.7142L306.159 62.013L315.852 53.7866L327.24 70.1945L328.495 68.9256L326.044 60.0431L328.495 57.5656L326.017 55.1146L324.941 56.2022L323.089 47.0761C326.965 43.6413 329.322 39.9302 330.015 38.504C332.155 33.9245 328.61 34.3242 326.571 35.0964Z" fill="url(#paint8_linear_521_28175)" fill-opacity="0.2" shape-rendering="crispEdges"/>
</g>
<defs>
<filter id="filter0_d_521_28175" x="166.252" y="44.3529" width="134.045" height="193.519" filterUnits="userSpaceOnUse" color-interpolation-filters="sRGB">
<feFlood flood-opacity="0" result="BackgroundImageFix"/>
<feColorMatrix in="SourceAlpha" type="matrix" values="0 0 0 0 0 0 0 0 0 0 0 0 0 0 0 0 0 0 127 0" result="hardAlpha"/>
<feOffset dy="0.1"/>
<feGaussianBlur stdDeviation="1.5"/>
<feComposite in2="hardAlpha" operator="out"/>
<feColorMatrix type="matrix" values="0 0 0 0 1 0 0 0 0 1 0 0 0 0 1 0 0 0 0.1 0"/>
<feBlend mode="normal" in2="BackgroundImageFix" result="effect1_dropShadow_521_28175"/>
<feBlend mode="normal" in="SourceGraphic" in2="effect1_dropShadow_521_28175" result="shape"/>
</filter>
<filter id="filter1_d_521_28175" x="203.252" y="44.3529" width="134.045" height="193.519" filterUnits="userSpaceOnUse" color-interpolation-filters="sRGB">
<feFlood flood-opacity="0" result="BackgroundImageFix"/>
<feColorMatrix in="SourceAlpha" type="matrix" values="0 0 0 0 0 0 0 0 0 0 0 0 0 0 0 0 0 0 127 0" result="hardAlpha"/>
<feOffset dy="0.1"/>
<feGaussianBlur stdDeviation="1.5"/>
<feComposite in2="hardAlpha" operator="out"/>
<feColorMatrix type="matrix" values="0 0 0 0 1 0 0 0 0 1 0 0 0 0 1 0 0 0 0.1 0"/>
<feBlend mode="normal" in2="BackgroundImageFix" result="effect1_dropShadow_521_28175"/>
<feBlend mode="normal" in="SourceGraphic" in2="effect1_dropShadow_521_28175" result="shape"/>
</filter>
<filter id="filter2_d_521_28175" x="237.252" y="44.3529" width="134.045" height="193.519" filterUnits="userSpaceOnUse" color-interpolation-filters="sRGB">
<feFlood flood-opacity="0" result="BackgroundImageFix"/>
<feColorMatrix in="SourceAlpha" type="matrix" values="0 0 0 0 0 0 0 0 0 0 0 0 0 0 0 0 0 0 127 0" result="hardAlpha"/>
<feOffset dy="0.1"/>
<feGaussianBlur stdDeviation="1.5"/>
<feComposite in2="hardAlpha" operator="out"/>
<feColorMatrix type="matrix" values="0 0 0 0 1 0 0 0 0 1 0 0 0 0 1 0 0 0 0.1 0"/>
<feBlend mode="normal" in2="BackgroundImageFix" result="effect1_dropShadow_521_28175"/>
<feBlend mode="normal" in="SourceGraphic" in2="effect1_dropShadow_521_28175" result="shape"/>
</filter>
<filter id="filter3_d_521_28175" x="266.252" y="49.3529" width="134.045" height="193.519" filterUnits="userSpaceOnUse" color-interpolation-filters="sRGB">
<feFlood flood-opacity="0" result="BackgroundImageFix"/>
<feColorMatrix in="SourceAlpha" type="matrix" values="0 0 0 0 0 0 0 0 0 0 0 0 0 0 0 0 0 0 127 0" result="hardAlpha"/>
<feOffset dy="0.1"/>
<feGaussianBlur stdDeviation="1.5"/>
<feComposite in2="hardAlpha" operator="out"/>
<feColorMatrix type="matrix" values="0 0 0 0 1 0 0 0 0 1 0 0 0 0 1 0 0 0 0.1 0"/>
<feBlend mode="normal" in2="BackgroundImageFix" result="effect1_dropShadow_521_28175"/>
<feBlend mode="normal" in="SourceGraphic" in2="effect1_dropShadow_521_28175" result="shape"/>
</filter>
<filter id="filter4_d_521_28175" x="293.117" y="33.1191" width="37.6619" height="38.7055" filterUnits="userSpaceOnUse" color-interpolation-filters="sRGB">
<feFlood flood-opacity="0" result="BackgroundImageFix"/>
<feColorMatrix in="SourceAlpha" type="matrix" values="0 0 0 0 0 0 0 0 0 0 0 0 0 0 0 0 0 0 127 0" result="hardAlpha"/>
<feOffset dy="1"/>
<feGaussianBlur stdDeviation="0.05"/>
<feComposite in2="hardAlpha" operator="out"/>
<feColorMatrix type="matrix" values="0 0 0 0 0 0 0 0 0 0 0 0 0 0 0 0 0 0 0.2 0"/>
<feBlend mode="normal" in2="BackgroundImageFix" result="effect1_dropShadow_521_28175"/>
<feBlend mode="normal" in="SourceGraphic" in2="effect1_dropShadow_521_28175" result="shape"/>
</filter>
<filter id="filter5_d_521_28175" x="293.117" y="34.6191" width="37.6619" height="38.7055" filterUnits="userSpaceOnUse" color-interpolation-filters="sRGB">
<feFlood flood-opacity="0" result="BackgroundImageFix"/>
<feColorMatrix in="SourceAlpha" type="matrix" values="0 0 0 0 0 0 0 0 0 0 0 0 0 0 0 0 0 0 127 0" result="hardAlpha"/>
<feOffset dy="1"/>
<feGaussianBlur stdDeviation="0.05"/>
<feComposite in2="hardAlpha" operator="out"/>
<feColorMatrix type="matrix" values="0 0 0 0 0 0 0 0 0 0 0 0 0 0 0 0 0 0 0.03 0"/>
<feBlend mode="normal" in2="BackgroundImageFix" result="effect1_dropShadow_521_28175"/>
<feBlend mode="normal" in="SourceGraphic" in2="effect1_dropShadow_521_28175" result="shape"/>
</filter>
<linearGradient id="paint0_linear_521_28175" x1="0" y1="56" x2="353" y2="56" gradientUnits="userSpaceOnUse">
<stop stop-color="#8094FF"/>
<stop offset="1" stop-color="#4D67F5"/>
</linearGradient>
<linearGradient id="paint1_linear_521_28175" x1="0" y1="56" x2="353" y2="56" gradientUnits="userSpaceOnUse">
<stop stop-color="#0047FF" stop-opacity="0.4"/>
<stop offset="1" stop-color="#0047FF"/>
</linearGradient>
<linearGradient id="paint2_linear_521_28175" x1="0" y1="56" x2="353" y2="56" gradientUnits="userSpaceOnUse">
<stop stop-color="#0047FF" stop-opacity="0.4"/>
<stop offset="1" stop-color="#0047FF"/>
</linearGradient>
<linearGradient id="paint3_linear_521_28175" x1="313.9" y1="52.0153" x2="143" y2="139.998" gradientUnits="userSpaceOnUse">
<stop stop-color="#0047FF"/>
<stop offset="1" stop-color="#C1CBFF"/>
</linearGradient>
<linearGradient id="paint4_linear_521_28175" x1="350.9" y1="52.0153" x2="180" y2="139.998" gradientUnits="userSpaceOnUse">
<stop stop-color="#0047FF"/>
<stop offset="1" stop-color="#C1CBFF"/>
</linearGradient>
<linearGradient id="paint5_linear_521_28175" x1="384.9" y1="52.0153" x2="214" y2="139.998" gradientUnits="userSpaceOnUse">
<stop stop-color="#0047FF"/>
<stop offset="1" stop-color="#C1CBFF"/>
</linearGradient>
<linearGradient id="paint6_linear_521_28175" x1="413.9" y1="57.0153" x2="243" y2="144.998" gradientUnits="userSpaceOnUse">
<stop stop-color="#0047FF"/>
<stop offset="1" stop-color="#C1CBFF"/>
</linearGradient>
<linearGradient id="paint7_linear_521_28175" x1="330.172" y1="33.4617" x2="298.134" y2="65.8453" gradientUnits="userSpaceOnUse">
<stop stop-color="white"/>
<stop offset="1" stop-color="white"/>
</linearGradient>
<linearGradient id="paint8_linear_521_28175" x1="330.172" y1="34.9617" x2="298.134" y2="67.3453" gradientUnits="userSpaceOnUse">
<stop stop-color="white"/>
<stop offset="1" stop-color="white"/>
</linearGradient>
</defs>
</svg>
