<svg width="76" height="74" viewBox="0 0 76 74" fill="none" xmlns="http://www.w3.org/2000/svg">
<g filter="url(#filter0_d_666_15352)">
<rect x="1" y="1" width="74" height="71" rx="20" fill="#FCFCFC"/>
</g>
<path opacity="0.4" d="M38.5 61.0837C52.077 61.0837 63.0833 50.0773 63.0833 36.5003C63.0833 22.9233 52.077 11.917 38.5 11.917C24.923 11.917 13.9166 22.9233 13.9166 36.5003C13.9166 50.0773 24.923 61.0837 38.5 61.0837Z" fill="#4A7DFF"/>
<path d="M50.6688 50.512C50.2017 50.512 49.7346 50.3399 49.3659 49.9712C48.6529 49.2583 48.6529 48.0783 49.3659 47.3654C52.2667 44.4645 53.8646 40.6049 53.8646 36.4995C53.8646 32.3941 52.2667 28.5345 49.3659 25.6337C48.6529 24.9208 48.6529 23.7408 49.3659 23.0279C50.0788 22.3149 51.2588 22.3149 51.9717 23.0279C55.5609 26.617 57.5521 31.4108 57.5521 36.4995C57.5521 41.5883 55.5609 46.382 51.9717 49.9712C51.6029 50.3399 51.1359 50.512 50.6688 50.512Z" fill="#4A7DFF"/>
<path d="M26.3312 50.512C25.8641 50.512 25.397 50.3399 25.0283 49.9712C21.4391 46.382 19.4479 41.5883 19.4479 36.4995C19.4479 31.4108 21.4391 26.617 25.0283 23.0279C25.7412 22.3149 26.9212 22.3149 27.6341 23.0279C28.347 23.7408 28.347 24.9208 27.6341 25.6337C24.7333 28.5345 23.1354 32.3941 23.1354 36.4995C23.1354 40.6049 24.7333 44.4645 27.6341 47.3654C28.347 48.0783 28.347 49.2583 27.6341 49.9712C27.2653 50.3399 26.7983 50.512 26.3312 50.512Z" fill="#4A7DFF"/>
<path d="M42.5564 35.959L40.3439 35.1723V30.3048H40.4176C41.4993 30.3048 42.4089 31.2881 42.4089 32.4681C42.4089 33.4761 43.2447 34.3119 44.2526 34.3119C45.2605 34.3119 46.0964 33.4761 46.0964 32.4681C46.0964 29.2477 43.5643 26.6173 40.4176 26.6173H40.3439V26.1748C40.3439 25.1669 39.508 24.3311 38.5001 24.3311C37.4922 24.3311 36.6564 25.1669 36.6564 26.1748V26.6173H36.0909C33.2393 26.6173 30.9039 29.0265 30.9039 31.9519C30.9039 34.5331 32.0593 36.1802 34.4193 37.0161L36.6318 37.8027V42.6702H36.558C35.4764 42.6702 34.5668 41.6869 34.5668 40.5069C34.5668 39.499 33.7309 38.6631 32.723 38.6631C31.7151 38.6631 30.8793 39.499 30.8793 40.5069C30.8793 43.7273 33.4114 46.3577 36.558 46.3577H36.6318V46.8002C36.6318 47.8081 37.4676 48.644 38.4755 48.644C39.4834 48.644 40.3193 47.8081 40.3193 46.8002V46.3577H40.8847C43.7364 46.3577 46.0718 43.9486 46.0718 41.0231C46.0718 38.4419 44.9409 36.7948 42.5564 35.959ZM35.6484 33.5498C34.8618 33.2794 34.5914 33.1319 34.5914 31.9765C34.5914 31.0669 35.2551 30.3294 36.0909 30.3294H36.6564V33.9186L35.6484 33.5498ZM40.9093 42.6948H40.3439V39.1056L41.3518 39.4498C42.1385 39.7202 42.4089 39.8677 42.4089 41.0231C42.3843 41.9327 41.7206 42.6948 40.9093 42.6948Z" fill="#4A7DFF"/>
<defs>
<filter id="filter0_d_666_15352" x="0" y="0.1" width="76" height="73" filterUnits="userSpaceOnUse" color-interpolation-filters="sRGB">
<feFlood flood-opacity="0" result="BackgroundImageFix"/>
<feColorMatrix in="SourceAlpha" type="matrix" values="0 0 0 0 0 0 0 0 0 0 0 0 0 0 0 0 0 0 127 0" result="hardAlpha"/>
<feOffset dy="0.1"/>
<feGaussianBlur stdDeviation="0.5"/>
<feComposite in2="hardAlpha" operator="out"/>
<feColorMatrix type="matrix" values="0 0 0 0 0 0 0 0 0 0 0 0 0 0 0 0 0 0 0.1 0"/>
<feBlend mode="normal" in2="BackgroundImageFix" result="effect1_dropShadow_666_15352"/>
<feBlend mode="normal" in="SourceGraphic" in2="effect1_dropShadow_666_15352" result="shape"/>
</filter>
</defs>
</svg>
