<svg width="76" height="74" viewBox="0 0 76 74" fill="none" xmlns="http://www.w3.org/2000/svg">
<g filter="url(#filter0_d_666_15366)">
<rect x="1" y="1" width="74" height="71" rx="20" fill="#FCFCFC"/>
</g>
<path d="M60.7724 36.0561L60.3791 35.5153C59.6907 34.6795 58.8795 34.0157 57.9453 33.524C56.6916 32.8111 55.2657 32.4424 53.7907 32.4424H23.1845C21.7095 32.4424 20.3082 32.8111 19.0299 33.524C18.0712 34.0403 17.2107 34.7532 16.4978 35.6382C15.0966 37.4328 14.4328 39.6453 14.6541 41.8578L15.5637 53.3382C15.8832 56.8045 16.3012 61.082 24.0941 61.082H52.9057C60.6987 61.082 61.092 56.8045 61.4362 53.3136L62.3457 41.8824C62.567 39.8174 62.0262 37.7524 60.7724 36.0561ZM44.3753 49.6261H32.5999C31.6412 49.6261 30.8791 48.8395 30.8791 47.9053C30.8791 46.9711 31.6412 46.1845 32.5999 46.1845H44.3753C45.3341 46.1845 46.0962 46.9711 46.0962 47.9053C46.0962 48.864 45.3341 49.6261 44.3753 49.6261Z" fill="#4A7DFF"/>
<path opacity="0.4" d="M17.3092 34.8041C17.85 34.3124 18.3909 33.8699 19.03 33.5257C20.2838 32.8128 21.7096 32.4441 23.1846 32.4441H53.8155C55.2905 32.4441 56.6917 32.8128 57.97 33.5257C58.6092 33.8699 59.1746 34.3124 59.6909 34.8287V33.5257V31.1412C59.6909 22.3649 57.0113 19.6853 48.235 19.6853H42.3842C41.3025 19.6853 41.278 19.6607 40.6388 18.8249L37.6888 14.867C36.2875 13.0478 35.1813 11.917 31.6659 11.917H28.765C19.9888 11.917 17.3092 14.5966 17.3092 23.3728V33.5503V34.8041Z" fill="#4A7DFF"/>
<defs>
<filter id="filter0_d_666_15366" x="0" y="0.1" width="76" height="73" filterUnits="userSpaceOnUse" color-interpolation-filters="sRGB">
<feFlood flood-opacity="0" result="BackgroundImageFix"/>
<feColorMatrix in="SourceAlpha" type="matrix" values="0 0 0 0 0 0 0 0 0 0 0 0 0 0 0 0 0 0 127 0" result="hardAlpha"/>
<feOffset dy="0.1"/>
<feGaussianBlur stdDeviation="0.5"/>
<feComposite in2="hardAlpha" operator="out"/>
<feColorMatrix type="matrix" values="0 0 0 0 0 0 0 0 0 0 0 0 0 0 0 0 0 0 0.1 0"/>
<feBlend mode="normal" in2="BackgroundImageFix" result="effect1_dropShadow_666_15366"/>
<feBlend mode="normal" in="SourceGraphic" in2="effect1_dropShadow_666_15366" result="shape"/>
</filter>
</defs>
</svg>
