<svg width="76" height="74" viewBox="0 0 76 74" fill="none" xmlns="http://www.w3.org/2000/svg">
<g filter="url(#filter0_d_666_15360)">
<rect x="1" y="1" width="74" height="71" rx="20" fill="#FCFCFC"/>
</g>
<path opacity="0.4" d="M48.8005 11.916H28.1997C19.2513 11.916 13.9167 17.2506 13.9167 26.1989V46.7998C13.9167 55.7481 19.2513 61.0827 28.1997 61.0827H48.8005C57.7488 61.0827 63.0834 55.7481 63.0834 46.7998V26.1989C63.0834 17.2506 57.7488 11.916 48.8005 11.916Z" fill="#4A7DFF"/>
<path d="M54.0123 28.8047C54.0123 29.8126 53.2011 30.6484 52.1686 30.6484H39.2623C38.2544 30.6484 37.4186 29.8126 37.4186 28.8047C37.4186 27.7968 38.2544 26.9609 39.2623 26.9609H52.1686C53.2011 26.9609 54.0123 27.7968 54.0123 28.8047Z" fill="#4A7DFF"/>
<path d="M33.5098 26.4188L27.9785 31.9501C27.6098 32.3188 27.1427 32.4909 26.6756 32.4909C26.2085 32.4909 25.7169 32.3188 25.3727 31.9501L23.529 30.1063C22.7915 29.3934 22.7915 28.2134 23.529 27.5005C24.2419 26.7876 25.3973 26.7876 26.1348 27.5005L26.6756 28.0413L30.904 23.813C31.6169 23.1001 32.7723 23.1001 33.5098 23.813C34.2227 24.5259 34.2227 25.7059 33.5098 26.4188Z" fill="#4A7DFF"/>
<path d="M54.0123 46.0137C54.0123 47.0216 53.2011 47.8574 52.1686 47.8574H39.2623C38.2544 47.8574 37.4186 47.0216 37.4186 46.0137C37.4186 45.0058 38.2544 44.1699 39.2623 44.1699H52.1686C53.2011 44.1699 54.0123 45.0058 54.0123 46.0137Z" fill="#4A7DFF"/>
<path d="M33.5098 43.6278L27.9785 49.1591C27.6098 49.5278 27.1427 49.6999 26.6756 49.6999C26.2085 49.6999 25.7169 49.5278 25.3727 49.1591L23.529 47.3153C22.7915 46.6024 22.7915 45.4224 23.529 44.7095C24.2419 43.9966 25.3973 43.9966 26.1348 44.7095L26.6756 45.2503L30.904 41.022C31.6169 40.3091 32.7723 40.3091 33.5098 41.022C34.2227 41.7349 34.2227 42.9149 33.5098 43.6278Z" fill="#4A7DFF"/>
<defs>
<filter id="filter0_d_666_15360" x="0" y="0.1" width="76" height="73" filterUnits="userSpaceOnUse" color-interpolation-filters="sRGB">
<feFlood flood-opacity="0" result="BackgroundImageFix"/>
<feColorMatrix in="SourceAlpha" type="matrix" values="0 0 0 0 0 0 0 0 0 0 0 0 0 0 0 0 0 0 127 0" result="hardAlpha"/>
<feOffset dy="0.1"/>
<feGaussianBlur stdDeviation="0.5"/>
<feComposite in2="hardAlpha" operator="out"/>
<feColorMatrix type="matrix" values="0 0 0 0 0 0 0 0 0 0 0 0 0 0 0 0 0 0 0.1 0"/>
<feBlend mode="normal" in2="BackgroundImageFix" result="effect1_dropShadow_666_15360"/>
<feBlend mode="normal" in="SourceGraphic" in2="effect1_dropShadow_666_15360" result="shape"/>
</filter>
</defs>
</svg>
