<svg width="83" height="82" viewBox="0 0 83 82" fill="none" xmlns="http://www.w3.org/2000/svg">
<g filter="url(#filter0_d_708_7451)">
<rect x="5" y="2" width="74" height="71" rx="20" fill="#FCFCFC"/>
</g>
<g filter="url(#filter1_d_708_7451)">
<path d="M66.0837 59.2397H16.917C15.9091 59.2397 15.0732 60.0756 15.0732 61.0835C15.0732 62.0914 15.9091 62.9272 16.917 62.9272H66.0837C67.0916 62.9272 67.9274 62.0914 67.9274 61.0835C67.9274 60.0756 67.0916 59.2397 66.0837 59.2397Z" fill="#4A7DFF"/>
<path opacity="0.4" d="M53.7917 11.9165H29.2083C21.8333 11.9165 19.375 16.3169 19.375 21.7498V61.0832H63.625V21.7498C63.625 16.3169 61.1667 11.9165 53.7917 11.9165Z" fill="#4A7DFF"/>
<path d="M46.5643 43.875H36.4114C35.1576 43.875 34.1006 44.9075 34.1006 46.1858V61.0833H48.8506V46.1858C48.8752 44.9075 47.8427 43.875 46.5643 43.875Z" fill="#4A7DFF"/>
<path d="M47.6462 26.0521H43.3441V21.75C43.3441 20.7421 42.5082 19.9062 41.5003 19.9062C40.4924 19.9062 39.6566 20.7421 39.6566 21.75V26.0521H35.3545C34.3466 26.0521 33.5107 26.8879 33.5107 27.8958C33.5107 28.9037 34.3466 29.7396 35.3545 29.7396H39.6566V34.0417C39.6566 35.0496 40.4924 35.8854 41.5003 35.8854C42.5082 35.8854 43.3441 35.0496 43.3441 34.0417V29.7396H47.6462C48.6541 29.7396 49.4899 28.9037 49.4899 27.8958C49.4899 26.8879 48.6541 26.0521 47.6462 26.0521Z" fill="#4A7DFF"/>
</g>
<defs>
<filter id="filter0_d_708_7451" x="4" y="1.1" width="76" height="73" filterUnits="userSpaceOnUse" color-interpolation-filters="sRGB">
<feFlood flood-opacity="0" result="BackgroundImageFix"/>
<feColorMatrix in="SourceAlpha" type="matrix" values="0 0 0 0 0 0 0 0 0 0 0 0 0 0 0 0 0 0 127 0" result="hardAlpha"/>
<feOffset dy="0.1"/>
<feGaussianBlur stdDeviation="0.5"/>
<feComposite in2="hardAlpha" operator="out"/>
<feColorMatrix type="matrix" values="0 0 0 0 0 0 0 0 0 0 0 0 0 0 0 0 0 0 0.1 0"/>
<feBlend mode="normal" in2="BackgroundImageFix" result="effect1_dropShadow_708_7451"/>
<feBlend mode="normal" in="SourceGraphic" in2="effect1_dropShadow_708_7451" result="shape"/>
</filter>
<filter id="filter1_d_708_7451" x="0.0732422" y="0.916504" width="82.8545" height="81.0107" filterUnits="userSpaceOnUse" color-interpolation-filters="sRGB">
<feFlood flood-opacity="0" result="BackgroundImageFix"/>
<feColorMatrix in="SourceAlpha" type="matrix" values="0 0 0 0 0 0 0 0 0 0 0 0 0 0 0 0 0 0 127 0" result="hardAlpha"/>
<feOffset dy="4"/>
<feGaussianBlur stdDeviation="7.5"/>
<feComposite in2="hardAlpha" operator="out"/>
<feColorMatrix type="matrix" values="0 0 0 0 0.829167 0 0 0 0 0.829167 0 0 0 0 0.829167 0 0 0 0.5 0"/>
<feBlend mode="normal" in2="BackgroundImageFix" result="effect1_dropShadow_708_7451"/>
<feBlend mode="normal" in="SourceGraphic" in2="effect1_dropShadow_708_7451" result="shape"/>
</filter>
</defs>
</svg>
