<svg width="76" height="74" viewBox="0 0 76 74" fill="none" xmlns="http://www.w3.org/2000/svg">
<g filter="url(#filter0_d_666_15372)">
<rect x="1" y="1" width="74" height="71" rx="20" fill="#FCFCFC"/>
</g>
<path opacity="0.4" d="M37.9837 41.9332L29.945 49.972C29.06 49.1853 28.1995 48.3741 27.3637 47.5382C24.8316 44.9816 22.5454 42.302 20.505 39.4995C18.4891 36.697 16.8666 33.8945 15.6866 31.1166C14.5066 28.3141 13.9166 25.6345 13.9166 23.0778C13.9166 21.4062 14.2116 19.8082 14.8016 18.3332C15.3916 16.8337 16.3258 15.457 17.6287 14.2278C19.202 12.6791 20.9229 11.917 22.742 11.917C23.4304 11.917 24.1187 12.0645 24.7333 12.3595C25.3725 12.6545 25.9379 13.097 26.3804 13.7362L32.0837 21.7749C32.5262 22.3895 32.8458 22.9549 33.067 23.4957C33.2883 24.012 33.4112 24.5282 33.4112 24.9953C33.4112 25.5853 33.2391 26.1753 32.895 26.7407C32.5754 27.3062 32.1083 27.8962 31.5183 28.4862L29.65 30.4282C29.3795 30.6987 29.2566 31.0182 29.2566 31.4116C29.2566 31.6082 29.2812 31.7803 29.3304 31.977C29.4041 32.1737 29.4779 32.3212 29.527 32.4687C29.9695 33.2799 30.7316 34.337 31.8133 35.6153C32.9195 36.8937 34.0995 38.1966 35.3779 39.4995C36.2629 40.3599 37.1233 41.1957 37.9837 41.9332Z" fill="#4A7DFF"/>
<path d="M63.0096 52.0609C63.0096 52.7492 62.8866 53.4621 62.6408 54.1505C62.5671 54.3471 62.4933 54.5438 62.395 54.7405C61.9771 55.6255 61.4362 56.4613 60.7233 57.248C59.5187 58.5755 58.1912 59.5342 56.6916 60.1488C56.6671 60.1488 56.6425 60.1734 56.6179 60.1734C55.1675 60.7634 53.5941 61.083 51.8979 61.083C49.3904 61.083 46.7108 60.493 43.8837 59.2884C41.0566 58.0838 38.2296 56.4613 35.4271 54.4209C34.4683 53.708 33.5096 52.9951 32.6 52.233L40.6387 44.1942C41.3271 44.7105 41.9416 45.1038 42.4579 45.3742C42.5808 45.4234 42.7283 45.4971 42.9004 45.5709C43.0971 45.6446 43.2937 45.6692 43.515 45.6692C43.9329 45.6692 44.2525 45.5217 44.5229 45.2513L46.3912 43.4076C47.0058 42.793 47.5958 42.3259 48.1612 42.0309C48.7266 41.6867 49.2921 41.5146 49.9066 41.5146C50.3737 41.5146 50.8654 41.613 51.4062 41.8342C51.9471 42.0555 52.5125 42.3751 53.1271 42.793L61.2641 48.5701C61.9033 49.0126 62.3458 49.5288 62.6162 50.1434C62.8621 50.758 63.0096 51.3726 63.0096 52.0609Z" fill="#4A7DFF"/>
<defs>
<filter id="filter0_d_666_15372" x="0" y="0.1" width="76" height="73" filterUnits="userSpaceOnUse" color-interpolation-filters="sRGB">
<feFlood flood-opacity="0" result="BackgroundImageFix"/>
<feColorMatrix in="SourceAlpha" type="matrix" values="0 0 0 0 0 0 0 0 0 0 0 0 0 0 0 0 0 0 127 0" result="hardAlpha"/>
<feOffset dy="0.1"/>
<feGaussianBlur stdDeviation="0.5"/>
<feComposite in2="hardAlpha" operator="out"/>
<feColorMatrix type="matrix" values="0 0 0 0 0 0 0 0 0 0 0 0 0 0 0 0 0 0 0.1 0"/>
<feBlend mode="normal" in2="BackgroundImageFix" result="effect1_dropShadow_666_15372"/>
<feBlend mode="normal" in="SourceGraphic" in2="effect1_dropShadow_666_15372" result="shape"/>
</filter>
</defs>
</svg>
