<svg width="353" height="17" viewBox="0 0 353 17" fill="none" xmlns="http://www.w3.org/2000/svg">
<line y1="8.5" x2="353" y2="8.5" stroke="#D9D9D9"/>
<rect width="107" height="17" transform="translate(122.5)" fill="white"/>
<path d="M137.102 5.71289C137.006 4.79688 136.2 4.26367 135.065 4.26367C133.848 4.26367 133.082 4.87891 133.082 5.72656C133.082 6.66992 134.108 7.02539 134.887 7.2168L135.844 7.47656C137.116 7.77734 138.688 8.47461 138.701 10.2656C138.688 11.9336 137.362 13.1641 135.024 13.1641C132.809 13.1641 131.414 12.0566 131.319 10.252H132.823C132.918 11.332 133.862 11.8516 135.024 11.8516C136.282 11.8516 137.198 11.209 137.211 10.2383C137.198 9.37695 136.391 9.02148 135.338 8.74805L134.162 8.43359C132.576 7.99609 131.578 7.18945 131.578 5.80859C131.578 4.09961 133.11 2.96484 135.106 2.96484C137.116 2.96484 138.524 4.11328 138.565 5.71289H137.102ZM147.86 3.10156V13H146.48L141.462 5.76758H141.38V13H139.876V3.10156H141.271L146.288 10.3477H146.384V3.10156H147.86ZM154.832 5.71289C154.736 4.79688 153.93 4.26367 152.795 4.26367C151.578 4.26367 150.812 4.87891 150.812 5.72656C150.812 6.66992 151.838 7.02539 152.617 7.2168L153.574 7.47656C154.846 7.77734 156.418 8.47461 156.432 10.2656C156.418 11.9336 155.092 13.1641 152.754 13.1641C150.539 13.1641 149.144 12.0566 149.049 10.252H150.553C150.648 11.332 151.592 11.8516 152.754 11.8516C154.012 11.8516 154.928 11.209 154.941 10.2383C154.928 9.37695 154.121 9.02148 153.068 8.74805L151.893 8.43359C150.307 7.99609 149.309 7.18945 149.309 5.80859C149.309 4.09961 150.84 2.96484 152.836 2.96484C154.846 2.96484 156.254 4.11328 156.295 5.71289H154.832ZM169.65 1.91211V5.53516H171.427V6.61523H169.65V10.8125H168.337V1.91211H169.65ZM166.328 2.8418C166.328 6.05469 164.14 8.39258 160.558 9.47266L160.011 8.43359C162.876 7.57227 164.66 5.94531 164.92 3.92188H160.531V2.8418H166.328ZM170.156 12.8496V13.9023H161.871V9.89648H163.183V12.8496H170.156ZM181.899 1.91211V11.0039H180.6V7.62695H178.686V6.5332H180.6V5.24805H178.686V4.18164H180.6V1.91211H181.899ZM178.549 2.86914V3.92188H177.373V8.02344C177.893 7.98242 178.392 7.94141 178.877 7.88672L178.932 8.84375C176.58 9.21289 173.832 9.25391 171.864 9.26758L171.7 8.17383C172.158 8.17383 172.663 8.17383 173.19 8.16016V3.92188H172.041V2.86914H178.549ZM182.213 12.8496V13.9023H173.914V10.2656H175.227V12.8496H182.213ZM174.448 8.14648C175.001 8.13281 175.562 8.11914 176.129 8.0918V3.92188H174.448V8.14648ZM197.537 11.6055V12.6992H186.326V11.6055H191.262V9.45898H187.693V5.5625H194.885V3.83984H187.666V2.77344H196.17V6.60156H188.979V8.39258H196.457V9.45898H192.547V11.6055H197.537ZM207.694 3.15625V4.46875C207.694 6.05469 207.694 7.77734 207.243 10.3887L205.917 10.2656C206.409 7.81836 206.409 6.01367 206.409 4.46875V4.22266H199.19V3.15625H207.694ZM209.157 11.3457V12.4258H197.987V11.3457H209.157ZM219.806 1.92578V10.8262H218.508V1.92578H219.806ZM220.175 12.8496V13.9023H211.795V9.92383H213.107V12.8496H220.175ZM213.162 2.74609C215.008 2.74609 216.416 4.00391 216.416 5.78125C216.416 7.58594 215.008 8.83008 213.162 8.83008C211.316 8.83008 209.894 7.58594 209.894 5.78125C209.894 4.00391 211.316 2.74609 213.162 2.74609ZM213.162 3.88086C212.013 3.88086 211.166 4.66016 211.166 5.78125C211.166 6.92969 212.013 7.69531 213.162 7.69531C214.283 7.69531 215.144 6.92969 215.144 5.78125C215.144 4.66016 214.283 3.88086 213.162 3.88086Z" fill="#A7A7A7"/>
</svg>
