<svg width="138" height="183" viewBox="0 0 138 183" fill="none" xmlns="http://www.w3.org/2000/svg">
<rect x="5" width="128.897" height="128.897" rx="29.4622" fill="#4A7DFF"/>
<g filter="url(#filter0_d_511_26533)">
<rect x="67.0662" y="18.4136" width="54.5243" height="73.0985" rx="15.6239" transform="rotate(33.1052 67.0662 18.4136)" fill="white"/>
</g>
<g filter="url(#filter1_d_511_26533)">
<rect x="67.0662" y="18.4136" width="54.5243" height="73.0985" rx="15.5784" transform="rotate(33.1052 67.0662 18.4136)" fill="#FEE58C"/>
</g>
<path fill-rule="evenodd" clip-rule="evenodd" d="M47.2668 48.7778L35.6297 66.6256C30.9168 73.8537 32.9558 83.5338 40.1839 88.2467L59.6819 100.96C66.91 105.673 76.5901 103.634 81.303 96.4056L92.9402 78.5578L47.2668 48.7778Z" fill="white"/>
<path d="M15.136 149.216H19.84V176.032H15.136V164.16H13.152V175.392H1.216V149.216H13.152V158.88H15.136V149.216ZM21.28 149.216H25.984V176.032H21.28V149.216ZM6.208 171.712H8.192V152.896H6.208V171.712ZM28.5598 149.216H43.5678V152.896H33.9998V171.712H43.8558V175.392H28.5598V149.216ZM47.5678 149.216H53.0078V176.032H47.5678V149.216ZM69.8235 149.216H74.5275V160.48H75.9675V149.216H80.6715V176.032H75.9675V165.76H74.5275V176.032H69.8235V149.216ZM56.2235 158.816H62.7835C62.8475 157.899 62.8795 156.896 62.8795 155.808V152.928H55.9035V149.216H67.8395V155.808C67.8395 158.624 67.6262 161.12 67.1995 163.296C66.7728 165.451 66.0795 167.317 65.1195 168.896C64.1808 170.475 62.9542 171.797 61.4395 172.864C59.9248 173.931 58.0795 174.773 55.9035 175.392V170.432C57.6528 169.835 59.0395 168.907 60.0635 167.648C61.1088 166.368 61.8555 164.651 62.3035 162.496H56.2235V158.816ZM88.6873 164.32V171.712H98.5433V175.392H83.2473V160.608H92.4953V152.928H83.2473V149.216H97.9353V164.32H88.6873ZM102.255 149.216H107.695V176.032H102.255V149.216ZM110.591 155.808C110.591 154.805 110.719 153.899 110.975 153.088C111.231 152.277 111.647 151.584 112.223 151.008C112.799 150.432 113.556 149.995 114.495 149.696C115.434 149.376 116.596 149.216 117.983 149.216C119.348 149.216 120.5 149.376 121.439 149.696C122.399 149.995 123.167 150.432 123.743 151.008C124.319 151.584 124.735 152.277 124.991 153.088C125.247 153.899 125.375 154.805 125.375 155.808V168.8C125.375 169.803 125.247 170.709 124.991 171.52C124.735 172.331 124.319 173.024 123.743 173.6C123.167 174.176 122.399 174.613 121.439 174.912C120.5 175.232 119.348 175.392 117.983 175.392C116.596 175.392 115.434 175.232 114.495 174.912C113.556 174.613 112.799 174.176 112.223 173.6C111.647 173.024 111.231 172.331 110.975 171.52C110.719 170.709 110.591 169.803 110.591 168.8V155.808ZM126.559 159.52H129.599V149.216H135.039V176.032H129.599V164.8H126.559V159.52ZM116.031 169.472C116.031 170.261 116.17 170.88 116.447 171.328C116.724 171.776 117.236 172 117.983 172C118.73 172 119.242 171.776 119.519 171.328C119.796 170.88 119.935 170.261 119.935 169.472V155.136C119.935 154.347 119.796 153.728 119.519 153.28C119.242 152.832 118.73 152.608 117.983 152.608C117.236 152.608 116.724 152.832 116.447 153.28C116.17 153.728 116.031 154.347 116.031 155.136V169.472Z" fill="#4A7DFF"/>
<defs>
<filter id="filter0_d_511_26533" x="15.9096" y="7.18203" width="108.062" height="113.476" filterUnits="userSpaceOnUse" color-interpolation-filters="sRGB">
<feFlood flood-opacity="0" result="BackgroundImageFix"/>
<feColorMatrix in="SourceAlpha" type="matrix" values="0 0 0 0 0 0 0 0 0 0 0 0 0 0 0 0 0 0 127 0" result="hardAlpha"/>
<feOffset/>
<feGaussianBlur stdDeviation="8.61358"/>
<feComposite in2="hardAlpha" operator="out"/>
<feColorMatrix type="matrix" values="0 0 0 0 0.219189 0 0 0 0 0.219189 0 0 0 0 0.219189 0 0 0 0.25 0"/>
<feBlend mode="normal" in2="BackgroundImageFix" result="effect1_dropShadow_511_26533"/>
<feBlend mode="normal" in="SourceGraphic" in2="effect1_dropShadow_511_26533" result="shape"/>
</filter>
<filter id="filter1_d_511_26533" x="28.8705" y="20.143" width="82.1396" height="87.5539" filterUnits="userSpaceOnUse" color-interpolation-filters="sRGB">
<feFlood flood-opacity="0" result="BackgroundImageFix"/>
<feColorMatrix in="SourceAlpha" type="matrix" values="0 0 0 0 0 0 0 0 0 0 0 0 0 0 0 0 0 0 127 0" result="hardAlpha"/>
<feOffset/>
<feGaussianBlur stdDeviation="2.12432"/>
<feComposite in2="hardAlpha" operator="out"/>
<feColorMatrix type="matrix" values="0 0 0 0 1 0 0 0 0 1 0 0 0 0 1 0 0 0 0.25 0"/>
<feBlend mode="normal" in2="BackgroundImageFix" result="effect1_dropShadow_511_26533"/>
<feBlend mode="normal" in="SourceGraphic" in2="effect1_dropShadow_511_26533" result="shape"/>
</filter>
</defs>
</svg>
