<svg width="22" height="22" viewBox="0 0 22 22" fill="none" xmlns="http://www.w3.org/2000/svg">
<g id="ph:x">
<path id="Vector" d="M17.3705 16.4418C17.4315 16.5028 17.4799 16.5752 17.5129 16.6549C17.5459 16.7345 17.5629 16.8199 17.5629 16.9061C17.5629 16.9924 17.5459 17.0777 17.5129 17.1574C17.4799 17.2371 17.4315 17.3095 17.3705 17.3704C17.3096 17.4314 17.2372 17.4798 17.1575 17.5128C17.0779 17.5458 16.9925 17.5627 16.9062 17.5627C16.82 17.5627 16.7346 17.5458 16.655 17.5128C16.5753 17.4798 16.5029 17.4314 16.442 17.3704L11 11.9276L5.55805 17.3704C5.43491 17.4936 5.26789 17.5627 5.09375 17.5627C4.9196 17.5627 4.75259 17.4936 4.62945 17.3704C4.50631 17.2473 4.43713 17.0803 4.43713 16.9061C4.43713 16.732 4.50631 16.565 4.62945 16.4418L10.0722 10.9999L4.62945 5.55792C4.50631 5.43478 4.43713 5.26777 4.43713 5.09363C4.43713 4.91948 4.50631 4.75247 4.62945 4.62933C4.75259 4.50619 4.9196 4.43701 5.09375 4.43701C5.26789 4.43701 5.43491 4.50619 5.55805 4.62933L11 10.0721L16.442 4.62933C16.5651 4.50619 16.7321 4.43701 16.9062 4.43701C17.0804 4.43701 17.2474 4.50619 17.3705 4.62933C17.4937 4.75247 17.5629 4.91948 17.5629 5.09363C17.5629 5.26777 17.4937 5.43478 17.3705 5.55792L11.9278 10.9999L17.3705 16.4418Z" fill="#04141C"/>
</g>
</svg>
