<svg width="26" height="26" viewBox="0 0 26 26" fill="none" xmlns="http://www.w3.org/2000/svg">
<g id="material-symbols:check-box">
<path id="Vector" d="M11.4833 17.55L19.1208 9.9125L17.6042 8.39583L11.4833 14.5167L8.39583 11.4292L6.87917 12.9458L11.4833 17.55ZM5.41667 22.75C4.82083 22.75 4.31094 22.538 3.887 22.1141C3.46306 21.6901 3.25072 21.1799 3.25 20.5833V5.41667C3.25 4.82083 3.46233 4.31094 3.887 3.887C4.31167 3.46306 4.82156 3.25072 5.41667 3.25H20.5833C21.1792 3.25 21.6894 3.46233 22.1141 3.887C22.5388 4.31167 22.7507 4.82156 22.75 5.41667V20.5833C22.75 21.1792 22.538 21.6894 22.1141 22.1141C21.6901 22.5388 21.1799 22.7507 20.5833 22.75H5.41667Z" fill="#FFC700"/>
</g>
</svg>
