<svg width="288" height="207" viewBox="0 0 288 207" fill="none" xmlns="http://www.w3.org/2000/svg">
<ellipse cx="135" cy="132" rx="103" ry="21" fill="#D9D9D9" fill-opacity="0.3"/>
<ellipse cx="135" cy="131.5" rx="135" ry="27.5" fill="#D9D9D9" fill-opacity="0.3"/>
<ellipse cx="135.5" cy="132" rx="73.5" ry="15" fill="#D9D9D9" fill-opacity="0.3"/>
<rect x="75" y="27" width="120" height="120" rx="60" fill="#4A7DFF"/>
<g filter="url(#filter0_d_734_16895)">
<rect x="132.782" y="44.1431" width="50.7608" height="68.053" rx="14.5455" transform="rotate(33.1052 132.782 44.1431)" fill="white"/>
</g>
<g filter="url(#filter1_d_734_16895)">
<rect x="132.782" y="44.1431" width="50.7608" height="68.053" rx="14.5031" transform="rotate(33.1052 132.782 44.1431)" fill="#FEE58C"/>
</g>
<path fill-rule="evenodd" clip-rule="evenodd" d="M114.35 72.4121L103.516 89.0275C99.1284 95.7567 101.027 104.769 107.756 109.156L125.908 120.992C132.637 125.379 141.649 123.481 146.037 116.752L156.87 100.137L114.35 72.4121Z" fill="white"/>
<path d="M227.049 12.1373C226.76 12.3636 226.414 12.506 226.049 12.5489L219.27 13.3459C217.719 13.5281 216.966 15.3364 217.928 16.5652L222.137 21.9399C222.363 22.229 222.506 22.5748 222.548 22.9395L223.345 29.7192C223.528 31.2693 225.336 32.0226 226.565 31.0604L231.939 26.8519C232.229 26.6255 232.574 26.4831 232.939 26.4402L239.719 25.6433C241.269 25.4611 242.022 23.6528 241.06 22.4239L236.851 17.0492C236.625 16.7601 236.483 16.4143 236.44 16.0497L235.643 9.26998C235.461 7.71992 233.652 6.96656 232.423 7.92877L227.049 12.1373Z" fill="#FEE58C" fill-opacity="0.8"/>
<path d="M47.3896 183.786C47.1857 184.091 46.9017 184.334 46.5687 184.489L40.3772 187.364C38.9616 188.021 38.8108 189.974 40.1087 190.841L45.7855 194.632C46.0909 194.836 46.3342 195.12 46.4888 195.453L49.3636 201.645C50.0209 203.06 51.9741 203.211 52.8408 201.913L56.632 196.236C56.8359 195.931 57.1199 195.687 57.4529 195.533L63.6445 192.658C65.0601 192.001 65.2108 190.048 63.9129 189.181L58.236 185.39C57.9307 185.186 57.6874 184.902 57.5328 184.569L54.6579 178.377C54.0006 176.962 52.0475 176.811 51.1807 178.109L47.3896 183.786Z" fill="#FEE58C" fill-opacity="0.8"/>
<path d="M15.2396 146.714C15.0321 146.876 14.7838 146.978 14.522 147.009L9.65478 147.581C8.54197 147.712 8.00113 149.01 8.6919 149.893L11.7132 153.751C11.8757 153.959 11.978 154.207 12.0088 154.469L12.5809 159.336C12.7117 160.449 14.0099 160.99 14.8921 160.299L18.7507 157.277C18.9582 157.115 19.2065 157.013 19.4683 156.982L24.3355 156.41C25.4484 156.279 25.9892 154.981 25.2984 154.099L22.277 150.24C22.1145 150.032 22.0123 149.784 21.9815 149.522L21.4094 144.655C21.2786 143.542 19.9804 143.002 19.0982 143.692L15.2396 146.714Z" fill="#FEE58C" fill-opacity="0.8"/>
<path d="M233.272 187.163C233.202 187.38 233.074 187.573 232.902 187.722L229.7 190.491C228.968 191.124 229.211 192.314 230.132 192.61L234.163 193.903C234.379 193.973 234.573 194.101 234.722 194.273L237.49 197.475C238.123 198.207 239.313 197.965 239.609 197.043L240.903 193.013C240.972 192.796 241.1 192.603 241.272 192.454L244.475 189.685C245.207 189.052 244.964 187.862 244.042 187.566L240.012 186.273C239.795 186.203 239.602 186.075 239.453 185.903L236.684 182.701C236.051 181.969 234.861 182.211 234.565 183.133L233.272 187.163Z" fill="#FEE58C" fill-opacity="0.8"/>
<path d="M51.0889 12.9796C51.0194 13.1964 50.8915 13.3898 50.7192 13.5387L47.5172 16.3072C46.7851 16.9402 47.0278 18.1304 47.9493 18.4262L51.9797 19.7199C52.1964 19.7894 52.3899 19.9174 52.5388 20.0896L55.3073 23.2916C55.9402 24.0237 57.1304 23.781 57.4262 22.8595L58.7199 18.8292C58.7895 18.6124 58.9174 18.4189 59.0896 18.27L62.2917 15.5016C63.0237 14.8686 62.781 13.6784 61.8596 13.3826L57.8292 12.0889C57.6124 12.0193 57.419 11.8914 57.2701 11.7192L54.5016 8.51718C53.8686 7.78509 52.6784 8.02779 52.3826 8.94926L51.0889 12.9796Z" fill="#FEE58C" fill-opacity="0.8"/>
<circle cx="17.5" cy="86.5" r="5" stroke="#4A7DFD" stroke-opacity="0.5"/>
<circle cx="208.5" cy="189.5" r="5" stroke="#4A7DFD" stroke-opacity="0.5"/>
<circle cx="279" cy="93" r="8.5" stroke="#4A7DFD" stroke-opacity="0.5"/>
<circle cx="28.5" cy="91.5" r="3" stroke="#4A7DFD" stroke-opacity="0.5"/>
<circle cx="241.5" cy="35.5" r="3" stroke="#4A7DFD" stroke-opacity="0.5"/>
<defs>
<filter id="filter0_d_734_16895" x="85.156" y="33.6865" width="100.603" height="105.644" filterUnits="userSpaceOnUse" color-interpolation-filters="sRGB">
<feFlood flood-opacity="0" result="BackgroundImageFix"/>
<feColorMatrix in="SourceAlpha" type="matrix" values="0 0 0 0 0 0 0 0 0 0 0 0 0 0 0 0 0 0 127 0" result="hardAlpha"/>
<feOffset/>
<feGaussianBlur stdDeviation="8.01903"/>
<feComposite in2="hardAlpha" operator="out"/>
<feColorMatrix type="matrix" values="0 0 0 0 0.219189 0 0 0 0 0.219189 0 0 0 0 0.219189 0 0 0 0.25 0"/>
<feBlend mode="normal" in2="BackgroundImageFix" result="effect1_dropShadow_734_16895"/>
<feBlend mode="normal" in="SourceGraphic" in2="effect1_dropShadow_734_16895" result="shape"/>
</filter>
<filter id="filter1_d_734_16895" x="97.2225" y="45.7531" width="76.47" height="81.5104" filterUnits="userSpaceOnUse" color-interpolation-filters="sRGB">
<feFlood flood-opacity="0" result="BackgroundImageFix"/>
<feColorMatrix in="SourceAlpha" type="matrix" values="0 0 0 0 0 0 0 0 0 0 0 0 0 0 0 0 0 0 127 0" result="hardAlpha"/>
<feOffset/>
<feGaussianBlur stdDeviation="1.97769"/>
<feComposite in2="hardAlpha" operator="out"/>
<feColorMatrix type="matrix" values="0 0 0 0 1 0 0 0 0 1 0 0 0 0 1 0 0 0 0.25 0"/>
<feBlend mode="normal" in2="BackgroundImageFix" result="effect1_dropShadow_734_16895"/>
<feBlend mode="normal" in="SourceGraphic" in2="effect1_dropShadow_734_16895" result="shape"/>
</filter>
</defs>
</svg>
