<svg width="23" height="23" viewBox="0 0 23 23" fill="none" xmlns="http://www.w3.org/2000/svg">
<rect width="23" height="23" rx="11.5" fill="#FFC700"/>
<path d="M9.42999 16.3683C9.30412 16.3685 9.17947 16.3437 9.0632 16.2955C8.94693 16.2473 8.84132 16.1767 8.75244 16.0875L5.07244 12.4075C4.98091 12.3191 4.90791 12.2134 4.85768 12.0965C4.80746 11.9795 4.78102 11.8538 4.77991 11.7265C4.77881 11.5993 4.80305 11.4731 4.85124 11.3553C4.89943 11.2375 4.97059 11.1305 5.06057 11.0406C5.15055 10.9506 5.25755 10.8794 5.37532 10.8312C5.4931 10.7831 5.61929 10.7588 5.74654 10.7599C5.87378 10.761 5.99954 10.7875 6.11646 10.8377C6.23338 10.8879 6.33912 10.9609 6.42753 11.0524L9.42999 14.0549L16.5724 6.91245C16.7532 6.73788 16.9953 6.64129 17.2465 6.64347C17.4978 6.64565 17.7382 6.74644 17.9159 6.92412C18.0935 7.10181 18.1943 7.34217 18.1965 7.59344C18.1987 7.84471 18.1021 8.08679 17.9275 8.26753L10.1075 16.0875C10.0187 16.1767 9.91305 16.2473 9.79677 16.2955C9.6805 16.3437 9.55585 16.3685 9.42999 16.3683Z" fill="white" fill-opacity="0.5"/>
</svg>
