<svg width="40" height="40" viewBox="0 0 40 40" fill="none" xmlns="http://www.w3.org/2000/svg">
<path opacity="0.4" d="M20.0016 36.6829C29.2064 36.6829 36.6683 29.221 36.6683 20.0163C36.6683 10.8115 29.2064 3.34961 20.0016 3.34961C10.7969 3.34961 3.33496 10.8115 3.33496 20.0163C3.33496 29.221 10.7969 36.6829 20.0016 36.6829Z" fill="#87B6FC"/>
<path d="M20.0009 11.5664C16.5509 11.5664 13.7509 14.3664 13.7509 17.8164C13.7509 21.1997 16.4009 23.9497 19.9175 24.0497C19.9675 24.0497 20.0342 24.0497 20.0675 24.0497C20.1009 24.0497 20.1509 24.0497 20.1842 24.0497C20.2009 24.0497 20.2175 24.0497 20.2175 24.0497C23.5842 23.9331 26.2342 21.1997 26.2509 17.8164C26.2509 14.3664 23.4509 11.5664 20.0009 11.5664Z" fill="#87B6FC"/>
<path d="M31.3002 32.2671C28.3335 35.0004 24.3669 36.6837 20.0002 36.6837C15.6335 36.6837 11.6669 35.0004 8.7002 32.2671C9.1002 30.7504 10.1835 29.3671 11.7669 28.3004C16.3169 25.2671 23.7169 25.2671 28.2335 28.3004C29.8335 29.3671 30.9002 30.7504 31.3002 32.2671Z" fill="#87B6FC"/>
</svg>
