<svg width="25" height="24" viewBox="0 0 25 24" fill="none" xmlns="http://www.w3.org/2000/svg">
<path d="M12 2C6.76 2 2.5 6.26 2.5 11.5C2.5 16.74 6.76 21 12 21C17.24 21 21.5 16.74 21.5 11.5C21.5 6.26 17.24 2 12 2ZM12 13.75H9C8.59 13.75 8.25 13.41 8.25 13C8.25 12.59 8.59 12.25 9 12.25H12C12.41 12.25 12.75 12.59 12.75 13C12.75 13.41 12.41 13.75 12 13.75ZM15 10.75H9C8.59 10.75 8.25 10.41 8.25 10C8.25 9.59 8.59 9.25 9 9.25H15C15.41 9.25 15.75 9.59 15.75 10C15.75 10.41 15.41 10.75 15 10.75Z" fill="#4A7DFF"/>
<path d="M21.8005 21.9986C21.6205 21.9986 21.4405 21.9286 21.3105 21.7986L19.4505 19.9386C19.1805 19.6686 19.1805 19.2286 19.4505 18.9486C19.7205 18.6786 20.1605 18.6786 20.4405 18.9486L22.3005 20.8086C22.5705 21.0786 22.5705 21.5186 22.3005 21.7986C22.1605 21.9286 21.9805 21.9986 21.8005 21.9986Z" fill="#4A7DFF"/>
</svg>
