<svg width="17" height="18" viewBox="0 0 17 18" fill="none" xmlns="http://www.w3.org/2000/svg">
<g id="call-calling">
<path id="Vector" d="M12.4808 8.11471C12.1762 8.11471 11.9354 7.8668 11.9354 7.5693C11.9354 7.30721 11.6733 6.7618 11.2341 6.28721C10.802 5.8268 10.3275 5.55763 9.93079 5.55763C9.62621 5.55763 9.38538 5.30971 9.38538 5.01221C9.38538 4.71471 9.63329 4.4668 9.93079 4.4668C10.6391 4.4668 11.3829 4.8493 12.0345 5.53638C12.6437 6.18096 13.0333 6.98138 13.0333 7.56221C13.0333 7.8668 12.7854 8.11471 12.4808 8.11471Z" fill="white"/>
<path id="Vector_2" d="M15.0378 8.11491C14.7332 8.11491 14.4923 7.86699 14.4923 7.56949C14.4923 5.05491 12.4453 3.01491 9.93775 3.01491C9.63317 3.01491 9.39233 2.76699 9.39233 2.46949C9.39233 2.17199 9.63317 1.91699 9.93067 1.91699C13.0473 1.91699 15.5832 4.45283 15.5832 7.56949C15.5832 7.86699 15.3352 8.11491 15.0378 8.11491Z" fill="white"/>
<path id="Vector_3" d="M7.82704 11.0899L6.51663 12.4003C6.24038 12.6766 5.80121 12.6766 5.51788 12.4074C5.43996 12.3295 5.36204 12.2587 5.28413 12.1807C4.55454 11.4441 3.89579 10.672 3.30788 9.86449C2.72704 9.05699 2.25954 8.24949 1.91954 7.44908C1.58663 6.64158 1.41663 5.86949 1.41663 5.13283C1.41663 4.65116 1.50163 4.19074 1.67163 3.76574C1.84163 3.33366 2.11079 2.93699 2.48621 2.58283C2.93954 2.13658 3.43538 1.91699 3.95954 1.91699C4.15788 1.91699 4.35621 1.95949 4.53329 2.04449C4.71746 2.12949 4.88038 2.25699 5.00788 2.44116L6.65121 4.75741C6.77871 4.93449 6.87079 5.09741 6.93454 5.25324C6.99829 5.40199 7.03371 5.55074 7.03371 5.68533C7.03371 5.85533 6.98413 6.02533 6.88496 6.18824C6.79288 6.35116 6.65829 6.52116 6.48829 6.69116L5.94996 7.25074C5.87204 7.32866 5.83663 7.42074 5.83663 7.53408C5.83663 7.59074 5.84371 7.64033 5.85788 7.69699C5.87913 7.75366 5.90038 7.79616 5.91454 7.83866C6.04204 8.07241 6.26163 8.37699 6.57329 8.74533C6.89204 9.11366 7.23204 9.48908 7.60038 9.86449C7.67121 9.93533 7.74913 10.0062 7.81996 10.077C8.10329 10.3532 8.11038 10.8066 7.82704 11.0899Z" fill="white"/>
<path id="Vector_4" d="M15.5621 13.4841C15.5621 13.6824 15.5267 13.8878 15.4559 14.0861C15.4346 14.1428 15.4134 14.1995 15.385 14.2561C15.2646 14.5111 15.1088 14.752 14.9034 14.9786C14.5563 15.3611 14.1738 15.6374 13.7417 15.8145C13.7346 15.8145 13.7275 15.8216 13.7205 15.8216C13.3025 15.9916 12.8492 16.0836 12.3605 16.0836C11.638 16.0836 10.8659 15.9136 10.0513 15.5666C9.23671 15.2195 8.42213 14.752 7.61463 14.1641C7.33838 13.9586 7.06213 13.7532 6.80005 13.5336L9.1163 11.2174C9.31463 11.3661 9.49171 11.4795 9.64046 11.5574C9.67588 11.5716 9.71838 11.5928 9.76797 11.6141C9.82463 11.6353 9.8813 11.6424 9.94505 11.6424C10.0655 11.6424 10.1575 11.5999 10.2355 11.522L10.7738 10.9907C10.9509 10.8136 11.1209 10.6791 11.2838 10.5941C11.4467 10.4949 11.6096 10.4453 11.7867 10.4453C11.9213 10.4453 12.063 10.4736 12.2188 10.5374C12.3746 10.6011 12.5375 10.6932 12.7146 10.8136L15.0592 12.4782C15.2434 12.6057 15.3709 12.7545 15.4488 12.9316C15.5196 13.1086 15.5621 13.2857 15.5621 13.4841Z" fill="white"/>
</g>
</svg>
