<svg width="76" height="74" viewBox="0 0 76 74" fill="none" xmlns="http://www.w3.org/2000/svg">
<g filter="url(#filter0_d_598_7408)">
<rect x="1" y="1" width="74" height="71" rx="20" fill="#FFFBFB" fill-opacity="0.54" shape-rendering="crispEdges"/>
</g>
<path opacity="0.8" d="M40.7125 13.1951L40.6387 13.3672L33.5096 29.9118H26.5033C24.8317 29.9118 23.2583 30.2314 21.7833 30.8706L26.0854 20.5947L26.1837 20.3735L26.3312 19.9801C26.405 19.8081 26.4542 19.6606 26.5279 19.5376C29.7483 12.0889 33.3867 10.3926 40.7125 13.1951Z" fill="#FFC700"/>
<path d="M53.963 30.4032C52.8567 30.0836 51.7013 29.9115 50.4967 29.9115H33.5096L40.6388 13.3669L40.7126 13.1948C41.0567 13.3177 41.4255 13.4898 41.7942 13.6127L47.2271 15.899C50.2509 17.1527 52.3651 18.4557 53.668 20.029C53.8892 20.324 54.0859 20.5944 54.2826 20.914C54.5038 21.2582 54.6759 21.6023 54.7742 21.9711C54.8726 22.1923 54.9463 22.389 54.9955 22.6102C55.6346 24.6998 55.2413 27.2319 53.963 30.4032Z" fill="#FFC700"/>
<path opacity="0.4" d="M62.4934 41.9083V46.702C62.4934 47.1937 62.4688 47.6854 62.4442 48.1525C61.9771 56.7566 57.1834 61.0833 48.0875 61.0833H28.9125C28.298 61.0833 27.7325 61.0341 27.1671 60.9604C19.3496 60.4441 15.1705 56.265 14.6296 48.4475C14.5559 47.8575 14.5067 47.292 14.5067 46.702V41.9083C14.5067 36.967 17.5059 32.7141 21.7834 30.8704C23.2584 30.2312 24.8317 29.9116 26.5034 29.9116H50.4967C51.7013 29.9116 52.8567 30.0837 53.963 30.4033C58.8796 31.9029 62.4934 36.4754 62.4934 41.9083Z" fill="#FFC700"/>
<path opacity="0.6" d="M26.0855 20.5947L21.7834 30.8706C17.5059 32.7143 14.5067 36.9672 14.5067 41.9085V34.7056C14.5067 27.7239 19.4725 21.8976 26.0855 20.5947Z" fill="#FFC700"/>
<path opacity="0.6" d="M62.4933 34.7054V41.9083C62.4933 36.4754 58.8796 31.9029 53.9629 30.4033C55.2412 27.232 55.6346 24.6999 54.9954 22.6104C54.9462 22.3891 54.8725 22.1924 54.7741 21.9712C59.3712 24.3558 62.4933 29.1987 62.4933 34.7054Z" fill="#FFC700"/>
<path d="M44.6458 43.1131H40.3437V38.9585C40.3437 37.9506 39.5079 37.1147 38.5 37.1147C37.492 37.1147 36.6562 37.9506 36.6562 38.9585V43.1131H32.3541C31.3462 43.1131 30.5104 43.9489 30.5104 44.9568C30.5104 45.9647 31.3462 46.8006 32.3541 46.8006H36.6562V51.2502C36.6562 52.2581 37.492 53.0939 38.5 53.0939C39.5079 53.0939 40.3437 52.2581 40.3437 51.2502V46.8006H44.6458C45.6537 46.8006 46.4895 45.9647 46.4895 44.9568C46.4895 43.9489 45.6537 43.1131 44.6458 43.1131Z" fill="#FFC700"/>
<defs>
<filter id="filter0_d_598_7408" x="0" y="0.1" width="76" height="73" filterUnits="userSpaceOnUse" color-interpolation-filters="sRGB">
<feFlood flood-opacity="0" result="BackgroundImageFix"/>
<feColorMatrix in="SourceAlpha" type="matrix" values="0 0 0 0 0 0 0 0 0 0 0 0 0 0 0 0 0 0 127 0" result="hardAlpha"/>
<feOffset dy="0.1"/>
<feGaussianBlur stdDeviation="0.5"/>
<feComposite in2="hardAlpha" operator="out"/>
<feColorMatrix type="matrix" values="0 0 0 0 0 0 0 0 0 0 0 0 0 0 0 0 0 0 0.1 0"/>
<feBlend mode="normal" in2="BackgroundImageFix" result="effect1_dropShadow_598_7408"/>
<feBlend mode="normal" in="SourceGraphic" in2="effect1_dropShadow_598_7408" result="shape"/>
</filter>
</defs>
</svg>
