<svg width="74" height="123" viewBox="0 0 74 123" fill="none" xmlns="http://www.w3.org/2000/svg">
<path opacity="0.4" d="M30.8334 12.0625H34.6875V26.7083C34.6875 27.9725 35.7359 29.0208 37 29.0208C38.2642 29.0208 39.3125 27.9725 39.3125 26.7083V12.0625H43.1667C44.4309 12.0625 45.4792 11.0142 45.4792 9.75C45.4792 8.48583 44.4309 7.4375 43.1667 7.4375H30.8334C29.5692 7.4375 28.5209 8.48583 28.5209 9.75C28.5209 11.0142 29.5692 12.0625 30.8334 12.0625Z" fill="#FFC700"/>
<path opacity="0.4" d="M43.1667 62.9375H39.3125V48.2917C39.3125 47.0275 38.2642 45.9792 37 45.9792C35.7359 45.9792 34.6875 47.0275 34.6875 48.2917V62.9375H30.8334C29.5692 62.9375 28.5209 63.9859 28.5209 65.25C28.5209 66.5142 29.5692 67.5625 30.8334 67.5625H43.1667C44.4309 67.5625 45.4792 66.5142 45.4792 65.25C45.4792 63.9859 44.4309 62.9375 43.1667 62.9375Z" fill="#FFC700"/>
<path opacity="0.4" d="M8.72586 30.9633C9.09586 31.1791 9.4967 31.2716 9.8667 31.2716C10.6684 31.2716 11.4392 30.8708 11.8709 30.1L13.8134 26.77L26.5167 34.1083C26.8559 34.3241 27.2567 34.4166 27.6575 34.4166C28.4592 34.4166 29.23 34.0158 29.6617 33.245C30.3092 32.135 29.9084 30.7166 28.8292 30.1L16.1567 22.7616L18.0684 19.4316C18.7159 18.3216 18.315 16.9033 17.2359 16.2866C16.1259 15.6391 14.7075 16.0091 14.0909 17.1191L7.9242 27.7875C7.24586 28.9283 7.61586 30.3158 8.72586 30.9633Z" fill="#FFC700"/>
<path opacity="0.4" d="M65.274 44.0366C64.164 43.3891 62.7457 43.7591 62.129 44.8691L60.1865 48.1991L47.4832 40.8916C46.3732 40.2441 44.9549 40.645 44.3382 41.7241C43.6907 42.8341 44.0915 44.2525 45.1707 44.8691L57.8432 52.2075L55.9315 55.5374C55.284 56.6474 55.6849 58.0658 56.764 58.6825C57.134 58.8983 57.5349 58.9908 57.9049 58.9908C58.7065 58.9908 59.4774 58.59 59.909 57.8191L66.0757 47.1508C66.754 46.0716 66.384 44.6841 65.274 44.0366Z" fill="#FFC700"/>
<path opacity="0.4" d="M57.874 22.7617L45.2015 30.1C44.0915 30.7475 43.7215 32.1658 44.369 33.245C44.8007 33.985 45.5715 34.4167 46.3732 34.4167C46.774 34.4167 47.1749 34.3242 47.514 34.1083L60.1865 26.77L62.129 30.1C62.5607 30.84 63.3315 31.2717 64.1332 31.2717C64.534 31.2717 64.9349 31.1792 65.274 30.9633C66.384 30.3158 66.754 28.8975 66.1065 27.8183L59.9399 17.15C59.2924 16.04 57.874 15.67 56.7949 16.3175C55.6849 16.965 55.3149 18.3833 55.9624 19.4625L57.874 22.7617Z" fill="#FFC700"/>
<path opacity="0.4" d="M16.1258 52.2383L28.7983 44.8999C29.9083 44.2524 30.2783 42.8341 29.6308 41.7549C28.9833 40.6449 27.565 40.2749 26.4858 40.9224L13.8133 48.2608L11.8708 44.9308C11.2233 43.8208 9.80498 43.4508 8.72582 44.0983C7.61582 44.7458 7.24582 46.1641 7.89332 47.2433L14.06 57.9116C14.4917 58.6516 15.2625 59.0833 16.0642 59.0833C16.465 59.0833 16.8658 58.9908 17.205 58.7749C18.315 58.1274 18.685 56.7091 18.0375 55.6299L16.1258 52.2383Z" fill="#FFC700"/>
<path d="M47.7917 37.5C47.7917 39.4733 47.2675 41.2925 46.3425 42.8958C44.4617 46.1333 40.9775 48.2916 37 48.2916C33.0225 48.2916 29.5384 46.1333 27.6575 42.8958C26.7325 41.2925 26.2084 39.4733 26.2084 37.5C26.2084 35.5266 26.7325 33.7075 27.6575 32.1041C29.5384 28.8666 33.0225 26.7083 37 26.7083C40.9775 26.7083 44.4617 28.8666 46.3425 32.1041C47.2675 33.7075 47.7917 35.5266 47.7917 37.5Z" fill="#FFC700"/>
<path d="M35.1881 101.582V110.684H33.0396V101.582H35.1881ZM35.2271 111.426V115.977H25.6764V117.402H35.7545V119.082H23.5475V114.395H33.0592V113.086H23.5084V111.426H35.2271ZM30.9303 102.461V104.219H27.2389C27.3267 106.172 28.8209 108.018 31.5553 108.77L30.5006 110.449C28.44 109.854 26.9654 108.594 26.1646 106.992C25.3736 108.76 23.8307 110.166 21.6529 110.82L20.6568 109.102C23.3912 108.291 24.9146 106.309 25.0318 104.219H21.2232V102.461H30.9303ZM40.3354 102.656V105.195H44.2807V102.656H46.4291V104.297H49.9838V101.582H52.1518V112.188H49.9838V109.648H46.4291V111.055H38.1674V102.656H40.3354ZM40.3354 109.355H44.2807V106.895H40.3354V109.355ZM46.1752 112.5C49.9252 112.5 52.2104 113.73 52.2104 115.879C52.2104 117.988 49.9252 119.219 46.1752 119.219C42.4447 119.219 40.1596 117.988 40.1791 115.879C40.1596 113.73 42.4447 112.5 46.1752 112.5ZM46.1752 114.16C43.7143 114.16 42.3276 114.746 42.3276 115.879C42.3276 116.953 43.7143 117.539 46.1752 117.539C48.6361 117.539 50.0424 116.953 50.0424 115.879C50.0424 114.746 48.6361 114.16 46.1752 114.16ZM46.4291 107.891H49.9838V106.016H46.4291V107.891Z" fill="black"/>
</svg>
