<svg width="74" height="123" viewBox="0 0 74 123" fill="none" xmlns="http://www.w3.org/2000/svg">
<g clip-path="url(#clip0_85_2057)">
<path d="M52.4167 6.66669H21.5833C12.3333 6.66669 9.25 12.1859 9.25 19V68.3334H64.75V19C64.75 12.1859 61.6667 6.66669 52.4167 6.66669Z" fill="#FFDF6F"/>
<path d="M67.8337 66.021H6.16699C4.90283 66.021 3.85449 67.0693 3.85449 68.3335C3.85449 69.5977 4.90283 70.646 6.16699 70.646H67.8337C69.0978 70.646 70.1462 69.5977 70.1462 68.3335C70.1462 67.0693 69.0978 66.021 67.8337 66.021Z" fill="#FFC700"/>
<path d="M43.3522 46.75H30.618C29.0455 46.75 27.7197 48.045 27.7197 49.6483V68.3333H46.2197V49.6483C46.2506 48.045 44.9555 46.75 43.3522 46.75Z" fill="#FFC700"/>
<path d="M44.7082 24.3958H39.3123V19C39.3123 17.7358 38.264 16.6875 36.9998 16.6875C35.7357 16.6875 34.6873 17.7358 34.6873 19V24.3958H29.2915C28.0273 24.3958 26.979 25.4442 26.979 26.7083C26.979 27.9725 28.0273 29.0208 29.2915 29.0208H34.6873V34.4167C34.6873 35.6808 35.7357 36.7292 36.9998 36.7292C38.264 36.7292 39.3123 35.6808 39.3123 34.4167V29.0208H44.7082C45.9723 29.0208 47.0207 27.9725 47.0207 26.7083C47.0207 25.4442 45.9723 24.3958 44.7082 24.3958Z" fill="#FFC700"/>
</g>
<path d="M23.4889 102.656V105.195H27.4342V102.656H29.5826V104.297H33.1373V101.582H35.3053V112.188H33.1373V109.648H29.5826V111.055H21.3209V102.656H23.4889ZM23.4889 109.355H27.4342V106.895H23.4889V109.355ZM29.3287 112.5C33.0787 112.5 35.3639 113.73 35.3639 115.879C35.3639 117.988 33.0787 119.219 29.3287 119.219C25.5982 119.219 23.3131 117.988 23.3326 115.879C23.3131 113.73 25.5982 112.5 29.3287 112.5ZM29.3287 114.16C26.8678 114.16 25.481 114.746 25.481 115.879C25.481 116.953 26.8678 117.539 29.3287 117.539C31.7896 117.539 33.1959 116.953 33.1959 115.879C33.1959 114.746 31.7896 114.16 29.3287 114.16ZM29.5826 107.891H33.1373V106.016H29.5826V107.891ZM52.1713 101.602V114.961H49.9838V113.418H46.5268V111.895H49.9838V101.602H52.1713ZM52.5815 117.129V118.887H39.6322V113.672H41.8002V117.129H52.5815ZM37.2885 109.531C40.5502 109.512 44.9252 109.473 48.6752 109.004L48.7924 110.566C47.3373 110.811 45.8334 110.977 44.3393 111.074V114.473H42.1713V111.191C40.5209 111.26 38.9486 111.27 37.5619 111.27L37.2885 109.531ZM43.0502 102.246C45.6283 102.246 47.4252 103.516 47.4447 105.371C47.4252 107.266 45.6283 108.477 43.0502 108.477C40.433 108.477 38.6361 107.266 38.6361 105.371C38.6361 103.516 40.433 102.246 43.0502 102.246ZM43.0502 103.848C41.644 103.848 40.6869 104.414 40.6869 105.371C40.6869 106.328 41.644 106.895 43.0502 106.895C44.3979 106.895 45.3549 106.328 45.3744 105.371C45.3549 104.414 44.3979 103.848 43.0502 103.848Z" fill="black"/>
<defs>
<clipPath id="clip0_85_2057">
<rect width="74" height="74" fill="white" transform="translate(0 0.5)"/>
</clipPath>
</defs>
</svg>
