<svg width="74" height="123" viewBox="0 0 74 123" fill="none" xmlns="http://www.w3.org/2000/svg">
<rect x="46.2256" y="4.5" width="33.6218" height="61.1305" rx="15.2826" transform="rotate(45 46.2256 4.5)" fill="#FFC700"/>
<path d="M24.6143 26.112L48.3885 49.8862L37.582 60.6926C31.6138 66.6609 21.9373 66.6609 15.9691 60.6926L13.8078 58.5314C7.83957 52.5631 7.83956 42.8867 13.8078 36.9185L24.6143 26.112Z" fill="#FFDF6F"/>
<path d="M36.8482 104.043V105.801H34.4459V107.832H36.8482V109.648H34.4459V112.012H32.2779V101.582H34.4459V104.043H36.8482ZM34.4459 112.773V119.238H32.2779V114.531H22.6881V112.773H34.4459ZM25.481 102.598C28.1959 102.578 30.2271 104.355 30.2467 106.836C30.2271 109.355 28.1959 111.113 25.481 111.113C22.7467 111.113 20.6959 109.355 20.7154 106.836C20.6959 104.355 22.7467 102.578 25.481 102.598ZM25.481 104.434C23.9576 104.453 22.8248 105.371 22.8443 106.836C22.8248 108.34 23.9576 109.277 25.481 109.258C26.985 109.277 28.1178 108.34 28.1178 106.836C28.1178 105.371 26.985 104.453 25.481 104.434ZM51.5268 102.383V103.73C51.5268 105.049 51.5268 106.562 51.1557 108.535H53.4994V110.293H46.4877V113.047H51.5658V119.238H49.3979V114.785H39.0072V113.047H44.3197V110.293H37.3666V108.535H48.9682C49.3197 106.729 49.3588 105.352 49.3588 104.121H39.3588V102.383H51.5268Z" fill="black"/>
</svg>
