<svg width="74" height="123" viewBox="0 0 74 123" fill="none" xmlns="http://www.w3.org/2000/svg">
<path opacity="0.4" d="M70.1458 68.3333C70.1458 69.5975 69.0975 70.6458 67.8333 70.6458H6.16663C4.90246 70.6458 3.85413 69.5975 3.85413 68.3333C3.85413 67.0691 4.90246 66.0208 6.16663 66.0208H67.8333C69.0975 66.0208 70.1458 67.0691 70.1458 68.3333Z" fill="#FFC700"/>
<path d="M64.75 46.75V66.0208H9.25V46.75C9.25 31.4258 21.6758 19 37 19C52.3242 19 64.75 31.4258 64.75 46.75Z" fill="#FFC700"/>
<path opacity="0.4" d="M37 12.0625C35.7358 12.0625 34.6875 11.0142 34.6875 9.75002V6.66669C34.6875 5.40252 35.7358 4.35419 37 4.35419C38.2642 4.35419 39.3125 5.40252 39.3125 6.66669V9.75002C39.3125 11.0142 38.2642 12.0625 37 12.0625Z" fill="#FFC700"/>
<path opacity="0.4" d="M15.4164 18.2292C14.8306 18.2292 14.2448 18.0133 13.7823 17.5508L10.6989 14.4675C9.80478 13.5733 9.80478 12.0934 10.6989 11.1992C11.5931 10.305 13.0731 10.305 13.9673 11.1992L17.0506 14.2825C17.9448 15.1767 17.9448 16.6567 17.0506 17.5508C16.5881 18.0133 16.0023 18.2292 15.4164 18.2292Z" fill="#FFC700"/>
<path opacity="0.4" d="M58.5831 18.2292C57.9973 18.2292 57.4114 18.0133 56.9489 17.5508C56.0548 16.6567 56.0548 15.1767 56.9489 14.2825L60.0323 11.1992C60.9264 10.305 62.4064 10.305 63.3006 11.1992C64.1948 12.0934 64.1948 13.5733 63.3006 14.4675L60.2173 17.5508C59.7548 18.0133 59.1689 18.2292 58.5831 18.2292Z" fill="#FFC700"/>
<path d="M26.7701 104.395C26.7701 106.621 28.2154 108.711 30.9303 109.57L29.7584 111.27C27.8541 110.625 26.4869 109.336 25.735 107.695C24.9537 109.57 23.5279 111.045 21.4967 111.758L20.3248 110.059C23.1764 109.062 24.5826 106.719 24.6021 104.199V102.52H26.7701V104.395ZM34.4459 101.582V105.879H36.9068V107.676H34.4459V112.148H32.2779V101.582H34.4459ZM28.7037 112.539C32.356 112.52 34.6021 113.77 34.6217 115.859C34.6021 117.988 32.356 119.219 28.7037 119.219C25.0123 119.219 22.7271 117.988 22.7271 115.859C22.7271 113.77 25.0123 112.52 28.7037 112.539ZM28.7037 114.238C26.2818 114.238 24.8951 114.824 24.8951 115.859C24.8951 116.953 26.2818 117.5 28.7037 117.5C31.1256 117.5 32.4732 116.953 32.4732 115.859C32.4732 114.824 31.1256 114.238 28.7037 114.238ZM45.9799 104.395V106.133H37.3276V104.395H40.6088V102.09H42.7572V104.395H45.9799ZM41.683 107.07C43.9291 107.07 45.5307 108.77 45.5307 111.172C45.5307 113.613 43.9291 115.332 41.683 115.332C39.4565 115.332 37.8158 113.613 37.8354 111.172C37.8158 108.77 39.4565 107.07 41.683 107.07ZM41.683 108.867C40.5307 108.867 39.7299 109.785 39.7494 111.172C39.7299 112.598 40.5307 113.496 41.683 113.477C42.8158 113.496 43.6166 112.598 43.6166 111.172C43.6166 109.785 42.8158 108.867 41.683 108.867ZM52.5424 101.582V119.238H50.4721V110.605H48.7533V118.438H46.7221V101.953H48.7533V108.848H50.4721V101.582H52.5424Z" fill="black"/>
</svg>
